<svg xmlns="http://www.w3.org/2000/svg" width="148.952" height="30.838" viewBox="0 0 148.952 30.838">
  <defs>
    <style>
      .cls-1 {
        fill: #fff;
      }
    </style>
  </defs>
  <g id="组_247" data-name="组 247" transform="translate(-526.742 -385.645)">
    <path id="路径_142" data-name="路径 142" class="cls-1" d="M637.323,411.647c0,3.482-3.176,6.117-7.279,6.117H628.26c-4.1,0-7.278-2.635-7.278-6.117v-9.569c0-3.482,3.174-6.116,7.278-6.116h1.785c4.1,0,7.279,2.633,7.279,6.116Zm-11.846,0a2.634,2.634,0,0,0,2.854,2.483h1.642a2.635,2.635,0,0,0,2.855-2.483v-9.569a2.635,2.635,0,0,0-2.855-2.483h-1.642a2.634,2.634,0,0,0-2.854,2.483Z" transform="translate(-52.968 -5.799)"/>
    <path id="路径_143" data-name="路径 143" class="cls-1" d="M685.033,404.288a5.948,5.948,0,0,1-4.461,5.557l4.926,8.074h-4.751l-4.675-7.659h-2.816v7.659h-4.39v-20.7h9.06c4.007,0,7.108,2.573,7.108,5.973Zm-4.39-1.094a2.573,2.573,0,0,0-2.787-2.425h-4.6v5.942h4.6a2.572,2.572,0,0,0,2.787-2.424Z" transform="translate(-79.882 -6.506)"/>
    <path id="路径_144" data-name="路径 144" class="cls-1" d="M714.765,397.222l4.95,16.322.068.24.07-.24,4.949-16.322h4.739l-6.829,20.7h-5.889l-6.8-20.7Z" transform="translate(-103.017 -6.507)"/>
    <rect id="矩形_115" data-name="矩形 115" class="cls-1" width="4.39" height="20.698" transform="translate(629.977 390.715)"/>
    <path id="路径_145" data-name="路径 145" class="cls-1" d="M800.97,412.451c0,3.1-3.032,5.469-7.109,5.469h-8.849v-20.7h8.849c4.078,0,7.109,2.365,7.109,5.469v.06a4.845,4.845,0,0,1-2.928,4.554,4.94,4.94,0,0,1,2.928,4.553ZM789.4,405.62H793.9a2.516,2.516,0,0,0,2.684-2.425v-.149a2.573,2.573,0,0,0-2.788-2.424H789.4Zm0,8.9h4.391a2.574,2.574,0,0,0,2.788-2.427v-.65a2.55,2.55,0,0,0-2.719-2.425H789.4Z" transform="translate(-145.162 -6.507)"/>
    <path id="路径_146" data-name="路径 146" class="cls-1" d="M845.888,411.647c0,3.482-3.174,6.117-7.278,6.117h-1.784c-4.1,0-7.278-2.635-7.278-6.117v-9.568c0-3.483,3.174-6.116,7.278-6.116h1.784c4.1,0,7.278,2.634,7.278,6.116Zm-11.845,0a2.634,2.634,0,0,0,2.853,2.483h1.643a2.635,2.635,0,0,0,2.854-2.483v-9.568a2.634,2.634,0,0,0-2.854-2.483H836.9a2.633,2.633,0,0,0-2.853,2.483Z" transform="translate(-170.195 -5.799)"/>
    <path id="路径_147" data-name="路径 147" class="cls-1" d="M528.673,406.465h4.778a11.189,11.189,0,0,1,1.33-2.054h-5.207a15.266,15.266,0,0,0-.9,2.054" transform="translate(-1.085 -10.548)"/>
    <path id="路径_148" data-name="路径 148" class="cls-1" d="M526.742,415.842h4.445a11.3,11.3,0,0,1,.381-2.054h-4.551a15.413,15.413,0,0,0-.276,2.054" transform="translate(0 -15.819)"/>
    <path id="路径_149" data-name="路径 149" class="cls-1" d="M533.119,423.166h-4.446a15.4,15.4,0,0,0,.273,2.054h4.545a11.269,11.269,0,0,1-.372-2.054" transform="translate(-1.085 -21.089)"/>
    <path id="路径_150" data-name="路径 150" class="cls-1" d="M545.135,385.645a15.4,15.4,0,0,0-12.334,6.164h6.1a10.526,10.526,0,0,1,6.238-2.045,11.3,11.3,0,1,1,0,22.6,11.017,11.017,0,0,1-9.781-6.18h-4.766a15.42,15.42,0,1,0,14.547-20.539" transform="translate(-2.162)"/>
  </g>
</svg>
